<mxfile host="app.diagrams.net" modified="2023-11-21T05:04:44.100Z" agent="Mozilla/5.0 (X11; Linux x86_64) AppleWebKit/537.36 (KHTML, like Gecko) Chrome/119.0.0.0 Safari/537.36" etag="_jWF6kSsaSZsMrqjW5Md" version="22.1.3" type="device">
  <diagram name="PÃ¡gina-1" id="XerYgLTwWciWJlLpvkxA">
    <mxGraphModel dx="794" dy="483" grid="1" gridSize="10" guides="1" tooltips="1" connect="1" arrows="1" fold="1" page="1" pageScale="1" pageWidth="827" pageHeight="1169" math="0" shadow="0">
      <root>
        <mxCell id="0" />
        <mxCell id="1" parent="0" />
        <mxCell id="3nY-ScyD8XhihT2ewoJb-9" value="&amp;lt;&amp;lt;abstract&amp;gt;&amp;gt;&lt;br&gt;Reprodutor musical" style="swimlane;fontStyle=0;align=center;verticalAlign=top;childLayout=stackLayout;horizontal=1;startSize=40;horizontalStack=0;resizeParent=1;resizeParentMax=0;resizeLast=0;collapsible=0;marginBottom=0;html=1;whiteSpace=wrap;" vertex="1" parent="1">
          <mxGeometry x="130" y="70" width="150" height="130" as="geometry" />
        </mxCell>
        <mxCell id="3nY-ScyD8XhihT2ewoJb-12" value="+tocar() : void" style="text;html=1;align=center;verticalAlign=middle;resizable=0;points=[];autosize=1;strokeColor=none;fillColor=none;" vertex="1" parent="3nY-ScyD8XhihT2ewoJb-9">
          <mxGeometry y="40" width="150" height="30" as="geometry" />
        </mxCell>
        <mxCell id="3nY-ScyD8XhihT2ewoJb-13" value="+pausar() : void" style="text;html=1;align=center;verticalAlign=middle;resizable=0;points=[];autosize=1;strokeColor=none;fillColor=none;" vertex="1" parent="3nY-ScyD8XhihT2ewoJb-9">
          <mxGeometry y="70" width="150" height="30" as="geometry" />
        </mxCell>
        <mxCell id="3nY-ScyD8XhihT2ewoJb-14" value="+selecionarMusica() : void" style="text;html=1;align=center;verticalAlign=middle;resizable=0;points=[];autosize=1;strokeColor=none;fillColor=none;" vertex="1" parent="3nY-ScyD8XhihT2ewoJb-9">
          <mxGeometry y="100" width="150" height="30" as="geometry" />
        </mxCell>
        <mxCell id="3nY-ScyD8XhihT2ewoJb-15" value="&amp;lt;&amp;lt;abstract&amp;gt;&amp;gt;&lt;br&gt;Navegador" style="swimlane;fontStyle=0;align=center;verticalAlign=top;childLayout=stackLayout;horizontal=1;startSize=40;horizontalStack=0;resizeParent=1;resizeParentMax=0;resizeLast=0;collapsible=0;marginBottom=0;html=1;whiteSpace=wrap;" vertex="1" parent="1">
          <mxGeometry x="330" y="70" width="145" height="130" as="geometry" />
        </mxCell>
        <mxCell id="3nY-ScyD8XhihT2ewoJb-26" value="+exibirPagina() : void" style="text;html=1;align=center;verticalAlign=middle;resizable=0;points=[];autosize=1;strokeColor=none;fillColor=none;" vertex="1" parent="3nY-ScyD8XhihT2ewoJb-15">
          <mxGeometry y="40" width="145" height="30" as="geometry" />
        </mxCell>
        <mxCell id="3nY-ScyD8XhihT2ewoJb-27" value="+addNovaAba() : void" style="text;html=1;align=center;verticalAlign=middle;resizable=0;points=[];autosize=1;strokeColor=none;fillColor=none;" vertex="1" parent="3nY-ScyD8XhihT2ewoJb-15">
          <mxGeometry y="70" width="145" height="30" as="geometry" />
        </mxCell>
        <mxCell id="3nY-ScyD8XhihT2ewoJb-28" value="+atualizarPagina() :void" style="text;html=1;align=center;verticalAlign=middle;resizable=0;points=[];autosize=1;strokeColor=none;fillColor=none;" vertex="1" parent="3nY-ScyD8XhihT2ewoJb-15">
          <mxGeometry y="100" width="145" height="30" as="geometry" />
        </mxCell>
        <mxCell id="3nY-ScyD8XhihT2ewoJb-37" value="&amp;lt;&amp;lt;abstract&amp;gt;&amp;gt;&lt;br&gt;Navegador" style="swimlane;fontStyle=0;align=center;verticalAlign=top;childLayout=stackLayout;horizontal=1;startSize=40;horizontalStack=0;resizeParent=1;resizeParentMax=0;resizeLast=0;collapsible=0;marginBottom=0;html=1;whiteSpace=wrap;" vertex="1" parent="1">
          <mxGeometry x="530" y="70" width="150" height="130" as="geometry" />
        </mxCell>
        <mxCell id="3nY-ScyD8XhihT2ewoJb-38" value="+ligar() :void" style="text;html=1;align=center;verticalAlign=middle;resizable=0;points=[];autosize=1;strokeColor=none;fillColor=none;" vertex="1" parent="3nY-ScyD8XhihT2ewoJb-37">
          <mxGeometry y="40" width="150" height="30" as="geometry" />
        </mxCell>
        <mxCell id="3nY-ScyD8XhihT2ewoJb-39" value="+atender() : void" style="text;html=1;align=center;verticalAlign=middle;resizable=0;points=[];autosize=1;strokeColor=none;fillColor=none;" vertex="1" parent="3nY-ScyD8XhihT2ewoJb-37">
          <mxGeometry y="70" width="150" height="30" as="geometry" />
        </mxCell>
        <mxCell id="3nY-ScyD8XhihT2ewoJb-40" value="+iniciarCorreioVoz() :void" style="text;html=1;align=center;verticalAlign=middle;resizable=0;points=[];autosize=1;strokeColor=none;fillColor=none;" vertex="1" parent="3nY-ScyD8XhihT2ewoJb-37">
          <mxGeometry y="100" width="150" height="30" as="geometry" />
        </mxCell>
        <mxCell id="3nY-ScyD8XhihT2ewoJb-41" value="Iphone" style="swimlane;fontStyle=0;align=center;verticalAlign=top;childLayout=stackLayout;horizontal=1;startSize=40;horizontalStack=0;resizeParent=1;resizeParentMax=0;resizeLast=0;collapsible=0;marginBottom=0;html=1;whiteSpace=wrap;" vertex="1" parent="1">
          <mxGeometry x="330" y="330" width="140" height="70" as="geometry" />
        </mxCell>
        <mxCell id="3nY-ScyD8XhihT2ewoJb-43" style="edgeStyle=orthogonalEdgeStyle;rounded=0;orthogonalLoop=1;jettySize=auto;html=1;exitX=0.5;exitY=0;exitDx=0;exitDy=0;entryX=0.467;entryY=1.333;entryDx=0;entryDy=0;entryPerimeter=0;" edge="1" parent="1" source="3nY-ScyD8XhihT2ewoJb-41" target="3nY-ScyD8XhihT2ewoJb-14">
          <mxGeometry relative="1" as="geometry" />
        </mxCell>
        <mxCell id="3nY-ScyD8XhihT2ewoJb-44" style="edgeStyle=orthogonalEdgeStyle;rounded=0;orthogonalLoop=1;jettySize=auto;html=1;entryX=0.483;entryY=1.1;entryDx=0;entryDy=0;entryPerimeter=0;" edge="1" parent="1" target="3nY-ScyD8XhihT2ewoJb-28">
          <mxGeometry relative="1" as="geometry">
            <mxPoint x="400" y="330" as="sourcePoint" />
          </mxGeometry>
        </mxCell>
        <mxCell id="3nY-ScyD8XhihT2ewoJb-45" style="edgeStyle=orthogonalEdgeStyle;rounded=0;orthogonalLoop=1;jettySize=auto;html=1;exitX=0.5;exitY=0;exitDx=0;exitDy=0;entryX=0.553;entryY=1.133;entryDx=0;entryDy=0;entryPerimeter=0;" edge="1" parent="1" source="3nY-ScyD8XhihT2ewoJb-41" target="3nY-ScyD8XhihT2ewoJb-40">
          <mxGeometry relative="1" as="geometry" />
        </mxCell>
      </root>
    </mxGraphModel>
  </diagram>
</mxfile>
